<?xml version="1.0" standalone="no"?>
<!DOCTYPE svg PUBLIC "-//W3C//DTD SVG 20010904//EN"
 "http://www.w3.org/TR/2001/REC-SVG-20010904/DTD/svg10.dtd">
<svg version="1.0" xmlns="http://www.w3.org/2000/svg"
 width="16.000000pt" height="16.000000pt" viewBox="0 0 16.000000 16.000000"
 preserveAspectRatio="xMidYMid meet">
<metadata>
Created by potrace 1.11, written by Peter Selinger 2001-2013
</metadata>
<g transform="translate(0.000000,16.000000) scale(0.006154,-0.006154)"
fill="#000000" stroke="none">
<path d="M1245 2502 c-27 -26 -49 -50 -47 -54 1 -5 -1 -8 -6 -8 -10 0 -622
-607 -622 -618 0 -5 87 -92 193 -195 105 -102 225 -218 265 -258 l73 -72 -263
-262 c-144 -145 -264 -267 -265 -272 -2 -4 33 -43 77 -87 l79 -78 200 198
c109 110 213 212 230 228 l31 30 -1 -101 c0 -56 2 -106 5 -112 3 -5 0 -12 -6
-15 -11 -5 -11 -7 0 -12 6 -3 9 -10 6 -15 -7 -12 -7 -427 1 -439 3 -4 -1 -11
-7 -14 -11 -5 -11 -7 0 -12 6 -3 9 -10 6 -16 -10 -15 -10 -128 0 -128 5 0 4
-6 -2 -12 -5 -7 -7 -21 -3 -30 8 -22 93 -113 112 -119 15 -5 111 87 117 112 7
28 5 236 -2 247 -4 7 -4 12 1 12 10 0 9 52 -1 68 -4 7 -4 12 1 12 10 0 9 373
-1 389 -4 6 -4 11 1 11 10 0 9 52 -1 68 -4 7 -4 12 1 12 4 0 6 21 4 46 -4 57
-31 79 244 -195 l216 -215 70 72 c38 40 74 72 79 72 30 0 -26 63 -260 296
l-262 261 111 109 c62 60 165 161 230 224 64 63 133 129 152 145 19 17 34 37
34 45 0 17 -553 570 -569 570 -5 0 -7 2 -4 5 7 7 -143 155 -157 155 -5 0 -32
-22 -60 -48z m-56 -542 c0 -83 3 -155 6 -159 3 -5 -1 -12 -7 -15 -11 -5 -11
-7 0 -12 6 -3 9 -10 6 -16 -8 -13 -7 -196 2 -209 4 -8 1 -8 -12 -1 -21 11
-284 268 -284 277 0 8 273 283 282 284 4 1 7 -67 7 -149z m521 -135 c0 -10
-191 -195 -201 -195 -5 0 -9 -6 -10 -12 0 -7 -18 -28 -40 -47 l-39 -33 2 59
c1 32 -1 64 -6 71 -4 6 -4 12 1 12 10 0 9 52 -1 68 -4 7 -4 12 1 12 4 0 7 75
7 167 -1 93 0 171 3 176 4 7 283 -267 283 -278z"/>
</g>
</svg>
